<?xml version="1.0" standalone="no"?>
<!DOCTYPE svg PUBLIC "-//W3C//DTD SVG 20010904//EN"
 "http://www.w3.org/TR/2001/REC-SVG-20010904/DTD/svg10.dtd">
<svg version="1.0" xmlns="http://www.w3.org/2000/svg"
 width="2048.000000pt" height="2048.000000pt" viewBox="0 0 2048.000000 2048.000000"
 preserveAspectRatio="xMidYMid meet">
<metadata>
Created by potrace 1.14, written by Peter Selinger 2001-2017
</metadata>
<g transform="translate(0.000000,2048.000000) scale(0.100000,-0.100000)"
fill="#000000" stroke="none">
<path d="M9898 19835 c-1 -1 -70 -5 -153 -9 -82 -3 -172 -8 -200 -11 -27 -2
-81 -7 -120 -10 -135 -11 -150 -13 -215 -19 -107 -12 -287 -35 -425 -56 -136
-21 -158 -24 -240 -40 -27 -5 -68 -13 -90 -16 -52 -8 -56 -9 -80 -17 -11 -3
-36 -8 -55 -11 -19 -3 -87 -17 -150 -31 -63 -14 -126 -28 -140 -30 -14 -3
-110 -28 -215 -56 -104 -27 -197 -52 -205 -54 -71 -18 -367 -110 -405 -125
-11 -5 -69 -25 -130 -46 -110 -37 -402 -146 -440 -164 -11 -5 -49 -21 -85 -35
-36 -15 -83 -35 -105 -45 -22 -10 -56 -25 -75 -33 -137 -60 -355 -164 -525
-252 -178 -92 -233 -121 -365 -198 -19 -11 -55 -31 -80 -45 -136 -76 -503
-312 -670 -430 -41 -30 -86 -61 -99 -70 -52 -37 -329 -247 -376 -286 -93 -75
-280 -231 -285 -236 -3 -3 -66 -59 -140 -124 -121 -108 -582 -561 -670 -661
-20 -22 -71 -80 -115 -130 -44 -49 -82 -92 -85 -95 -3 -3 -22 -26 -43 -52 -21
-26 -43 -53 -50 -60 -7 -7 -39 -47 -72 -88 -33 -41 -62 -77 -65 -80 -3 -3 -21
-25 -40 -50 -19 -25 -38 -49 -43 -55 -133 -167 -346 -471 -539 -770 -208 -323
-510 -895 -673 -1275 -185 -431 -380 -986 -461 -1315 -10 -40 -11 -45 -14 -47
-1 -2 -3 -10 -5 -18 -2 -8 -17 -69 -33 -135 -49 -189 -135 -608 -156 -755 -3
-19 -14 -93 -25 -165 -11 -71 -23 -155 -26 -185 -3 -30 -8 -68 -10 -85 -2 -16
-6 -59 -10 -95 -3 -36 -8 -76 -10 -90 -2 -14 -7 -70 -11 -125 -3 -55 -8 -108
-10 -117 -25 -136 -25 -1130 1 -1408 2 -25 7 -76 10 -115 3 -38 10 -110 16
-160 5 -49 12 -112 15 -140 6 -60 10 -88 24 -185 5 -41 13 -93 16 -115 3 -22
16 -105 29 -185 23 -137 27 -158 40 -220 2 -14 7 -41 10 -60 3 -19 8 -43 11
-52 3 -9 7 -25 9 -36 53 -276 174 -720 286 -1052 44 -129 81 -239 83 -245 1
-5 6 -19 11 -30 4 -11 30 -78 57 -150 184 -481 446 -1020 704 -1446 47 -79 93
-155 100 -169 38 -67 277 -421 389 -575 71 -99 298 -392 352 -455 12 -14 54
-63 94 -110 120 -141 170 -199 244 -279 107 -116 510 -517 604 -601 46 -41
107 -96 136 -122 28 -26 123 -106 211 -178 87 -73 168 -139 179 -149 11 -9
103 -78 205 -153 102 -76 196 -146 210 -156 41 -31 380 -256 455 -302 39 -23
138 -82 220 -131 83 -48 166 -97 185 -108 122 -73 577 -299 781 -389 501 -222
992 -391 1524 -527 94 -24 181 -46 195 -49 14 -3 70 -15 125 -27 131 -28 183
-38 220 -44 17 -3 50 -10 75 -15 25 -5 72 -14 105 -19 136 -23 167 -28 260
-41 44 -6 96 -13 115 -16 113 -17 344 -41 474 -50 44 -3 95 -7 111 -9 88 -12
351 -20 680 -20 418 0 596 8 935 40 14 1 59 6 100 9 41 4 82 9 90 11 8 2 44 7
80 10 36 3 90 10 120 15 30 5 78 12 105 15 28 4 57 8 65 10 8 2 38 7 65 11 49
6 66 9 115 19 14 2 39 7 55 10 27 4 204 39 261 51 12 2 82 18 155 35 74 17
141 32 149 34 235 52 815 232 1120 348 70 26 394 159 445 182 797 362 1414
730 2040 1219 120 93 359 289 375 306 3 3 66 59 140 125 159 141 566 545 700
695 51 58 107 121 125 140 17 19 89 105 159 190 70 85 135 164 145 175 16 19
248 329 277 370 261 367 554 848 725 1189 22 44 45 88 50 96 10 18 127 264
156 330 11 25 37 83 58 130 20 47 43 99 50 115 7 17 42 104 78 195 107 271
181 490 292 855 47 156 169 654 191 785 3 14 11 59 19 100 21 108 49 279 60
360 3 25 8 56 10 70 5 26 11 73 20 155 4 28 8 61 10 75 7 52 21 187 30 305 4
44 8 100 10 125 14 152 20 369 20 690 0 378 -5 514 -30 820 -7 90 -24 257 -31
310 -5 36 -7 55 -18 150 -4 30 -9 62 -11 70 -3 8 -7 40 -10 70 -3 30 -7 62
-10 70 -2 8 -7 33 -10 55 -3 23 -8 52 -10 65 -3 14 -10 52 -15 85 -5 33 -12
71 -15 85 -3 14 -10 52 -16 85 -28 154 -146 646 -180 750 -5 17 -25 82 -43
145 -136 457 -325 948 -522 1355 -31 66 -58 122 -59 125 0 3 -6 14 -12 25 -6
11 -42 81 -80 155 -71 136 -88 167 -171 315 -120 213 -313 520 -466 740 -75
108 -265 367 -276 375 -3 3 -17 21 -30 40 -13 19 -27 37 -30 40 -3 3 -39 48
-81 100 -42 53 -83 102 -90 110 -8 8 -48 56 -90 105 -41 50 -86 102 -100 116
-13 15 -69 76 -124 137 -187 208 -650 656 -818 792 -17 14 -60 50 -96 80 -37
31 -104 86 -151 124 -47 37 -94 74 -104 83 -195 160 -797 571 -996 680 -19 10
-53 30 -75 44 -164 104 -691 371 -990 502 -719 313 -1543 556 -2275 671 -56 9
-161 24 -215 32 -27 3 -57 8 -66 9 -9 2 -40 6 -70 10 -30 3 -70 8 -89 11 -48
6 -123 14 -192 19 -32 3 -70 7 -85 9 -16 3 -82 8 -148 12 -66 3 -138 8 -160
10 -49 5 -872 14 -877 9z m5257 -4281 c127 -130 264 -271 305 -314 41 -42 191
-196 332 -341 141 -146 303 -313 360 -371 57 -58 211 -217 343 -353 339 -348
464 -479 462 -481 -1 -2 -103 -107 -227 -234 -124 -128 -263 -271 -309 -319
-77 -80 -524 -540 -706 -726 -44 -46 -186 -192 -317 -326 -130 -134 -278 -287
-330 -340 -244 -252 -595 -613 -673 -694 -48 -49 -212 -218 -364 -374 -152
-156 -305 -314 -341 -351 -36 -37 -180 -186 -320 -330 -140 -144 -289 -297
-330 -340 -41 -42 -197 -202 -346 -356 -150 -153 -306 -315 -349 -359 -42 -44
-201 -208 -353 -364 -152 -157 -299 -308 -327 -336 -27 -29 -179 -184 -336
-346 -157 -162 -315 -324 -350 -361 -35 -36 -182 -187 -325 -335 -144 -147
-288 -295 -319 -328 -32 -33 -183 -188 -335 -345 -153 -157 -311 -319 -351
-361 -41 -42 -191 -196 -334 -343 -143 -147 -296 -305 -340 -351 -44 -46 -200
-206 -347 -357 -146 -150 -304 -312 -350 -359 -45 -48 -115 -120 -154 -160
-40 -41 -84 -85 -98 -99 l-27 -24 -107 111 c-59 61 -225 232 -369 380 -143
147 -296 305 -340 349 -72 75 -390 403 -643 663 -209 215 -636 655 -690 711
-30 31 -183 188 -339 348 -156 160 -325 334 -375 386 -87 90 -492 507 -699
720 -401 412 -574 591 -650 670 -48 50 -128 132 -178 182 l-90 91 158 161 c87
88 316 321 508 517 193 196 411 419 485 495 135 138 781 796 990 1008 l111
114 42 -45 c23 -25 157 -163 297 -307 140 -144 289 -297 330 -340 41 -42 193
-198 336 -346 144 -148 295 -303 335 -345 41 -42 198 -204 350 -360 152 -156
335 -346 408 -421 l133 -137 55 57 c30 31 163 169 296 306 133 136 280 287
327 336 47 48 205 210 351 361 147 151 297 306 334 344 37 39 181 186 319 328
138 142 298 306 355 365 265 274 604 623 681 702 137 140 597 614 693 714 49
50 200 206 337 346 136 140 291 300 345 355 53 55 217 223 363 374 147 151
290 298 317 326 28 29 168 173 312 321 143 148 298 307 343 354 45 47 205 211
355 365 150 154 307 316 350 360 42 44 192 198 332 342 l256 263 101 -105 c55
-57 205 -211 331 -341z"/>
</g>
</svg>
